<?xml version="1.0" encoding="iso-8859-1"?>
<!-- Generator: Adobe Illustrator 19.0.0, SVG Export Plug-In . SVG Version: 6.00 Build 0)  -->
<svg version="1.1" id="Layer_1" xmlns="http://www.w3.org/2000/svg" xmlns:xlink="http://www.w3.org/1999/xlink" x="0px" y="0px"
	 viewBox="0 0 512 512" style="enable-background:new 0 0 512 512;" xml:space="preserve">
<path style="fill:#FFFFFF;" d="M256,508C117.048,508,4,394.952,4,256S117.048,4,256,4s252,113.048,252,252S394.952,508,256,508z"/>
<path style="fill:#999999;" d="M256,8c136.744,0,248,111.256,248,248S392.744,504,256,504S8,392.744,8,256S119.256,8,256,8 M256,0
	C114.616,0,0,114.616,0,256s114.616,256,256,256s256-114.616,256-256S397.384,0,256,0L256,0z"/>
<g style="opacity:0.5;">
	<path style="fill:#FFFFFF;" d="M256,483.832c-125.624,0-227.832-102.2-227.832-227.832S130.376,28.168,256,28.168
		c125.632,0,227.832,102.2,227.832,227.832S381.632,483.832,256,483.832z"/>
	<path style="fill:#999999;" d="M256,30.168c124.528,0,225.832,101.312,225.832,225.832S380.528,481.832,256,481.832
		S30.168,380.528,30.168,256S131.472,30.168,256,30.168 M256,26.168C129.064,26.168,26.168,129.064,26.168,256
		S129.064,485.832,256,485.832S485.832,382.936,485.832,256S382.936,26.168,256,26.168L256,26.168z"/>
</g>
<g>
	<path style="fill:#E21B1B;" d="M123.576,302.696H94.632l48.024-55.072l-27.016-53.736h23.376l10.608,20.408
		c0.352,0.744,2.776,5.768,7.28,15.072c0.296,0.496,0.616,1.168,0.96,2c6.04-7.368,11.112-13.408,15.208-18.112l17.152-19.368
		h28.136l-49.808,57.296l26.792,51.504h-25.232l-8.16-16.408c-4.256-8.656-7.08-14.864-8.472-18.624
		c-1.92,2.92-6.896,8.952-14.912,18.112L123.576,302.696z"/>
	<path style="fill:#E21B1B;" d="M269.408,302.696h-21.216l-3.936-90.92l-17.296,90.92h-20.184l22.72-108.808H261.4l3.344,76.224
		l37.112-76.224h32.28l-22.784,108.808h-20.408l21.448-90.248L269.408,302.696z"/>
	<path style="fill:#E21B1B;" d="M334.056,302.696l22.784-108.808h22.344l-18.92,90.616h55.36l-3.784,18.184h-77.784V302.696z"/>
</g>
<g>
</g>
<g>
</g>
<g>
</g>
<g>
</g>
<g>
</g>
<g>
</g>
<g>
</g>
<g>
</g>
<g>
</g>
<g>
</g>
<g>
</g>
<g>
</g>
<g>
</g>
<g>
</g>
<g>
</g>
</svg>
